# xmcd
#
# Track frame offsets: 
#        150
#        19975
#        37997
#        56388
#        76249
#        88965
#        108346
#        124784
#        141234
#        158601
#        182254
#        198586
#        213276
#        226525
#        241354
#        258720
#        270815
#        286210
#        302771
#
# Disc length: 4457 seconds
#
# Revision: 3
# Processed by: cddbd v1.5.2PL0 Copyright (c) Steve Scherf et al.
# Submitted via: ExactAudioCopy v0.90b4
#
DISCID=f6116713
DTITLE=Neil Diamond - The Essential Neil Diamond
DYEAR=2002
DGENRE=Pop
TTITLE0=I Haven't Played This Song In Years
TTITLE1=You Are The Best Part Of Me
TTITLE2=Headed For The Future
TTITLE3=Heartlight
TTITLE4=Yesterday's Songs
TTITLE5=America
TTITLE6=Hello Again
TTITLE7=Love On The Rocks
TTITLE8=September Morn
TTITLE9=The American Popular Song
TTITLE10=Forever In Blue Jeans
TTITLE11=You Don't Bring Me Flowers (With Barbra Streisand)
TTITLE12=Let Me Take You In My Arms Again
TTITLE13=Desirée
TTITLE14=Lady Oh
TTITLE15=Stargazer
TTITLE16=Beautiful Noise
TTITLE17=If You Know What I Mean
TTITLE18=Medley: Yes I Will/Lady Magdalene (Live)
EXTD=
EXTT0=
EXTT1=
EXTT2=
EXTT3=
EXTT4=
EXTT5=
EXTT6=
EXTT7=
EXTT8=
EXTT9=
EXTT10=
EXTT11=
EXTT12=
EXTT13=
EXTT14=
EXTT15=
EXTT16=
EXTT17=
EXTT18=
PLAYORDER=
